<?xml version="1.0" encoding="UTF-8"?>
<!DOCTYPE svg PUBLIC "-//W3C//DTD SVG 1.1//EN" "http://www.w3.org/Graphics/SVG/1.1/DTD/svg11.dtd">
<svg xmlns="http://www.w3.org/2000/svg" version="1.1" width="200px" height="200px" style="shape-rendering:geometricPrecision; text-rendering:geometricPrecision; image-rendering:optimizeQuality; fill-rule:evenodd; clip-rule:evenodd" xmlns:xlink="http://www.w3.org/1999/xlink">
<g><path style="opacity:0.984" fill="#fdd2d1" d="M 98.5,-0.5 C 99.5,-0.5 100.5,-0.5 101.5,-0.5C 110.919,12.9135 119.919,26.5802 128.5,40.5C 128.5,41.1667 128.5,41.8333 128.5,42.5C 119.167,49.5 109.833,56.5 100.5,63.5C 99.8333,63.5 99.1667,63.5 98.5,63.5C 89.5152,56.6965 80.3485,50.0299 71,43.5C 58.1667,62.3333 45.3333,81.1667 32.5,100C 33.305,101.113 33.9717,102.279 34.5,103.5C 31.8333,103.5 29.1667,103.5 26.5,103.5C 26.5,109.5 26.5,115.5 26.5,121.5C 30.5138,121.666 34.5138,121.499 38.5,121C 40.687,119.975 42.3536,118.475 43.5,116.5C 44.4725,118.139 45.8058,119.473 47.5,120.5C 47.5,120.833 47.5,121.167 47.5,121.5C 64.5032,146.012 81.3366,170.678 98,195.5C 99.4509,195.736 100.951,195.736 102.5,195.5C 101.082,197.308 99.0821,197.975 96.5,197.5C 63.9943,176.081 31.661,154.415 -0.5,132.5C -0.5,130.167 -0.5,127.833 -0.5,125.5C 8.45216,88.0841 16.7855,50.4174 24.5,12.5C 25.8734,12.3433 27.2068,12.51 28.5,13C 42.1667,22.5 55.8333,32 69.5,41.5C 79.9397,28.0557 89.6063,14.0557 98.5,-0.5 Z"/></g>
<g><path style="opacity:0.984" fill="#fdd1d1" d="M 199.5,123.5 C 199.5,126.5 199.5,129.5 199.5,132.5C 166.868,154.476 134.535,176.809 102.5,199.5C 101.167,199.5 99.8333,199.5 98.5,199.5C 97.8333,198.833 97.1667,198.167 96.5,197.5C 99.0821,197.975 101.082,197.308 102.5,195.5C 119.757,170.644 136.757,145.644 153.5,120.5C 154.846,118.463 156.18,116.463 157.5,114.5C 158.728,113.694 159.728,112.694 160.5,111.5C 160.5,114.833 160.5,118.167 160.5,121.5C 165.167,121.5 169.833,121.5 174.5,121.5C 174.5,120.5 174.5,119.5 174.5,118.5C 171.5,118.5 168.5,118.5 165.5,118.5C 165.5,116.833 165.5,115.167 165.5,113.5C 168.167,113.5 170.833,113.5 173.5,113.5C 173.5,112.5 173.5,111.5 173.5,110.5C 170.833,110.5 168.167,110.5 165.5,110.5C 165.5,109.167 165.5,107.833 165.5,106.5C 168.5,106.5 171.5,106.5 174.5,106.5C 174.5,105.5 174.5,104.5 174.5,103.5C 171.833,103.5 169.167,103.5 166.5,103.5C 167.218,101.863 167.384,100.197 167,98.5C 154.391,79.5934 141.558,60.9267 128.5,42.5C 128.5,41.8333 128.5,41.1667 128.5,40.5C 142.875,31.6381 156.875,22.1381 170.5,12C 171.449,11.3828 172.282,11.5494 173,12.5C 181.408,49.732 190.242,86.732 199.5,123.5 Z"/></g>
<g><path style="opacity:1" fill="#fcb1b1" d="M 128.5,42.5 C 141.558,60.9267 154.391,79.5934 167,98.5C 167.384,100.197 167.218,101.863 166.5,103.5C 164.5,103.5 162.5,103.5 160.5,103.5C 160.5,106.167 160.5,108.833 160.5,111.5C 159.728,112.694 158.728,113.694 157.5,114.5C 157.953,110.574 156.62,107.408 153.5,105C 148.964,103.621 144.297,103.121 139.5,103.5C 139.5,109.5 139.5,115.5 139.5,121.5C 144.23,121.717 148.897,121.383 153.5,120.5C 136.757,145.644 119.757,170.644 102.5,195.5C 100.951,195.736 99.4509,195.736 98,195.5C 81.3366,170.678 64.5032,146.012 47.5,121.5C 52.1667,121.5 56.8333,121.5 61.5,121.5C 61.5,120.5 61.5,119.5 61.5,118.5C 58.5,118.5 55.5,118.5 52.5,118.5C 52.5,116.833 52.5,115.167 52.5,113.5C 55.1667,113.5 57.8333,113.5 60.5,113.5C 60.5,112.5 60.5,111.5 60.5,110.5C 57.8333,110.5 55.1667,110.5 52.5,110.5C 52.5,109.167 52.5,107.833 52.5,106.5C 55.5,106.5 58.5,106.5 61.5,106.5C 61.5,105.5 61.5,104.5 61.5,103.5C 56.8333,103.5 52.1667,103.5 47.5,103.5C 47.5,109.167 47.5,114.833 47.5,120.5C 45.8058,119.473 44.4725,118.139 43.5,116.5C 45.5033,108.525 42.5033,104.191 34.5,103.5C 33.9717,102.279 33.305,101.113 32.5,100C 45.3333,81.1667 58.1667,62.3333 71,43.5C 80.3485,50.0299 89.5152,56.6965 98.5,63.5C 95.6336,66.5211 92.3003,69.0211 88.5,71C 82.6518,71.1728 76.9851,71.6728 71.5,72.5C 71.5,73.5 71.5,74.5 71.5,75.5C 73.5,75.5 75.5,75.5 77.5,75.5C 77.5,76.8333 77.5,78.1667 77.5,79.5C 74.9511,79.937 73.6178,81.437 73.5,84C 74.5877,89.5173 75.7543,95.0173 77,100.5C 78.53,101.92 80.3633,102.92 82.5,103.5C 82.3764,104.107 82.0431,104.44 81.5,104.5C 80.0813,103.549 78.4147,103.216 76.5,103.5C 75.6441,107.57 74.4774,111.57 73,115.5C 71.5977,111.793 70.0977,108.126 68.5,104.5C 66.8333,103.167 65.1667,103.167 63.5,104.5C 65.9053,110.051 67.9053,115.717 69.5,121.5C 71.604,121.799 73.604,121.466 75.5,120.5C 76.609,117.292 77.9423,114.292 79.5,111.5C 82.1065,118.595 83.7731,125.928 84.5,133.5C 86.4147,133.216 88.0813,133.549 89.5,134.5C 82.1476,133.191 77.8142,136.191 76.5,143.5C 77.9224,152.38 82.9224,155.38 91.5,152.5C 91.0183,153.416 90.685,154.416 90.5,155.5C 93.3591,168.27 96.5258,180.936 100,193.5C 103.701,180.299 106.867,166.966 109.5,153.5C 110.434,152.432 110.768,151.099 110.5,149.5C 111.804,145.64 112.471,141.64 112.5,137.5C 113.5,137.5 114.5,137.5 115.5,137.5C 115.5,141.5 115.5,145.5 115.5,149.5C 114.167,149.5 112.833,149.5 111.5,149.5C 111.5,150.833 111.5,152.167 111.5,153.5C 115.5,153.5 119.5,153.5 123.5,153.5C 123.5,152.167 123.5,150.833 123.5,149.5C 122.167,149.5 120.833,149.5 119.5,149.5C 119.5,145.5 119.5,141.5 119.5,137.5C 120.5,137.5 121.5,137.5 122.5,137.5C 122.5,136.5 122.5,135.5 122.5,134.5C 119.833,134.5 117.167,134.5 114.5,134.5C 115.372,128.809 116.372,123.142 117.5,117.5C 123.164,124.158 128.997,124.158 135,117.5C 137.004,106.339 132.504,101.672 121.5,103.5C 122.707,96.7998 124.04,90.1331 125.5,83.5C 128.12,79.9981 128.12,76.4981 125.5,73C 121.179,72.501 116.846,72.3343 112.5,72.5C 108.462,69.4884 104.462,66.4884 100.5,63.5C 109.833,56.5 119.167,49.5 128.5,42.5 Z"/></g>
<g><path style="opacity:1" fill="#fb9c9b" d="M 98.5,63.5 C 99.1667,63.5 99.8333,63.5 100.5,63.5C 104.462,66.4884 108.462,69.4884 112.5,72.5C 112.5,78.5 112.5,84.5 112.5,90.5C 114.167,90.5 115.833,90.5 117.5,90.5C 117.5,88.5 117.5,86.5 117.5,84.5C 120.237,84.5987 122.904,84.2653 125.5,83.5C 124.04,90.1331 122.707,96.7998 121.5,103.5C 116.602,107.038 115.269,111.704 117.5,117.5C 116.372,123.142 115.372,128.809 114.5,134.5C 113.5,134.5 112.5,134.5 111.5,134.5C 111.263,135.791 111.596,136.791 112.5,137.5C 112.471,141.64 111.804,145.64 110.5,149.5C 107.5,149.5 104.5,149.5 101.5,149.5C 101.5,144.5 101.5,139.5 101.5,134.5C 99.8333,134.5 98.1667,134.5 96.5,134.5C 96.5,140.833 96.5,147.167 96.5,153.5C 100.833,153.5 105.167,153.5 109.5,153.5C 106.867,166.966 103.701,180.299 100,193.5C 96.5258,180.936 93.3591,168.27 90.5,155.5C 90.685,154.416 91.0183,153.416 91.5,152.5C 92.6491,152.209 93.3158,151.376 93.5,150C 93.2324,147.107 92.2324,146.774 90.5,149C 81.2305,149.387 79.2305,145.72 84.5,138C 87.3766,137.275 90.0433,137.775 92.5,139.5C 93.8452,136.531 92.8452,134.864 89.5,134.5C 88.0813,133.549 86.4147,133.216 84.5,133.5C 83.7731,125.928 82.1065,118.595 79.5,111.5C 79.8782,109.079 80.5448,106.746 81.5,104.5C 82.0431,104.44 82.3764,104.107 82.5,103.5C 80.3633,102.92 78.53,101.92 77,100.5C 75.7543,95.0173 74.5877,89.5173 73.5,84C 73.6178,81.437 74.9511,79.937 77.5,79.5C 77.5,83.1667 77.5,86.8333 77.5,90.5C 79.1667,90.5 80.8333,90.5 82.5,90.5C 82.5,85.5 82.5,80.5 82.5,75.5C 84.1667,75.5 85.8333,75.5 87.5,75.5C 87.5,74.5 87.5,73.5 87.5,72.5C 82.1667,72.5 76.8333,72.5 71.5,72.5C 76.9851,71.6728 82.6518,71.1728 88.5,71C 92.3003,69.0211 95.6336,66.5211 98.5,63.5 Z"/></g>
<g><path style="opacity:1" fill="#0f0909" d="M 71.5,72.5 C 76.8333,72.5 82.1667,72.5 87.5,72.5C 87.5,73.5 87.5,74.5 87.5,75.5C 85.8333,75.5 84.1667,75.5 82.5,75.5C 82.5,80.5 82.5,85.5 82.5,90.5C 80.8333,90.5 79.1667,90.5 77.5,90.5C 77.5,86.8333 77.5,83.1667 77.5,79.5C 77.5,78.1667 77.5,76.8333 77.5,75.5C 75.5,75.5 73.5,75.5 71.5,75.5C 71.5,74.5 71.5,73.5 71.5,72.5 Z"/></g>
<g><path style="opacity:1" fill="#613b3a" d="M 96.5,72.5 C 94.8333,72.5 93.1667,72.5 91.5,72.5C 91.5,78.5 91.5,84.5 91.5,90.5C 90.5098,84.3554 90.1765,78.0221 90.5,71.5C 92.7354,71.2053 94.7354,71.5386 96.5,72.5 Z"/></g>
<g><path style="opacity:1" fill="#0d0807" d="M 96.5,72.5 C 98.8916,75.5978 101.058,78.9311 103,82.5C 103.498,79.1832 103.665,75.8499 103.5,72.5C 104.833,72.5 106.167,72.5 107.5,72.5C 107.5,78.5 107.5,84.5 107.5,90.5C 105.712,90.7852 104.045,90.4519 102.5,89.5C 100.582,85.9961 98.4157,82.6628 96,79.5C 95.5014,83.1516 95.3347,86.8183 95.5,90.5C 94.1667,90.5 92.8333,90.5 91.5,90.5C 91.5,84.5 91.5,78.5 91.5,72.5C 93.1667,72.5 94.8333,72.5 96.5,72.5 Z"/></g>
<g><path style="opacity:1" fill="#0f0a09" d="M 112.5,72.5 C 116.846,72.3343 121.179,72.501 125.5,73C 128.12,76.4981 128.12,79.9981 125.5,83.5C 122.904,84.2653 120.237,84.5987 117.5,84.5C 117.5,86.5 117.5,88.5 117.5,90.5C 115.833,90.5 114.167,90.5 112.5,90.5C 112.5,84.5 112.5,78.5 112.5,72.5 Z"/></g>
<g><path style="opacity:1" fill="#faa09f" d="M 117.5,75.5 C 121.5,74.8333 123.167,76.5 122.5,80.5C 120.833,80.5 119.167,80.5 117.5,80.5C 117.5,78.8333 117.5,77.1667 117.5,75.5 Z"/></g>
<g><path style="opacity:1" fill="#797777" d="M 34.5,103.5 C 42.5033,104.191 45.5033,108.525 43.5,116.5C 42.3536,118.475 40.687,119.975 38.5,121C 34.5138,121.499 30.5138,121.666 26.5,121.5C 26.5,115.5 26.5,109.5 26.5,103.5C 29.1667,103.5 31.8333,103.5 34.5,103.5 Z"/></g>
<g><path style="opacity:1" fill="#797777" d="M 47.5,121.5 C 47.5,121.167 47.5,120.833 47.5,120.5C 47.5,114.833 47.5,109.167 47.5,103.5C 52.1667,103.5 56.8333,103.5 61.5,103.5C 61.5,104.5 61.5,105.5 61.5,106.5C 58.5,106.5 55.5,106.5 52.5,106.5C 52.5,107.833 52.5,109.167 52.5,110.5C 55.1667,110.5 57.8333,110.5 60.5,110.5C 60.5,111.5 60.5,112.5 60.5,113.5C 57.8333,113.5 55.1667,113.5 52.5,113.5C 52.5,115.167 52.5,116.833 52.5,118.5C 55.5,118.5 58.5,118.5 61.5,118.5C 61.5,119.5 61.5,120.5 61.5,121.5C 56.8333,121.5 52.1667,121.5 47.5,121.5 Z"/></g>
<g><path style="opacity:1" fill="#7b7777" d="M 81.5,104.5 C 80.5448,106.746 79.8782,109.079 79.5,111.5C 77.9423,114.292 76.609,117.292 75.5,120.5C 73.604,121.466 71.604,121.799 69.5,121.5C 67.9053,115.717 65.9053,110.051 63.5,104.5C 65.1667,103.167 66.8333,103.167 68.5,104.5C 70.0977,108.126 71.5977,111.793 73,115.5C 74.4774,111.57 75.6441,107.57 76.5,103.5C 78.4147,103.216 80.0813,103.549 81.5,104.5 Z"/></g>
<g><path style="opacity:1" fill="#817878" d="M 93.5,103.5 C 95.604,103.201 97.604,103.534 99.5,104.5C 100.667,106.833 101.833,109.167 103,111.5C 104.626,109.083 106.126,106.583 107.5,104C 109.473,103.505 111.473,103.338 113.5,103.5C 113.5,109.833 113.5,116.167 113.5,122.5C 111.833,122.5 110.167,122.5 108.5,122.5C 108.666,118.486 108.499,114.486 108,110.5C 106.589,112.65 105.755,114.984 105.5,117.5C 104.127,117.657 102.793,117.49 101.5,117C 100.853,115.391 100.02,113.891 99,112.5C 98.5017,115.817 98.335,119.15 98.5,122.5C 96.8333,122.5 95.1667,122.5 93.5,122.5C 93.5,116.167 93.5,109.833 93.5,103.5 Z"/></g>
<g><path style="opacity:1" fill="#7d7878" d="M 117.5,117.5 C 115.269,111.704 116.602,107.038 121.5,103.5C 132.504,101.672 137.004,106.339 135,117.5C 128.997,124.158 123.164,124.158 117.5,117.5 Z"/></g>
<g><path style="opacity:1" fill="#7a7777" d="M 157.5,114.5 C 156.18,116.463 154.846,118.463 153.5,120.5C 148.897,121.383 144.23,121.717 139.5,121.5C 139.5,115.5 139.5,109.5 139.5,103.5C 144.297,103.121 148.964,103.621 153.5,105C 156.62,107.408 157.953,110.574 157.5,114.5 Z"/></g>
<g><path style="opacity:1" fill="#7a7878" d="M 166.5,103.5 C 169.167,103.5 171.833,103.5 174.5,103.5C 174.5,104.5 174.5,105.5 174.5,106.5C 171.5,106.5 168.5,106.5 165.5,106.5C 165.5,107.833 165.5,109.167 165.5,110.5C 168.167,110.5 170.833,110.5 173.5,110.5C 173.5,111.5 173.5,112.5 173.5,113.5C 170.833,113.5 168.167,113.5 165.5,113.5C 165.5,115.167 165.5,116.833 165.5,118.5C 168.5,118.5 171.5,118.5 174.5,118.5C 174.5,119.5 174.5,120.5 174.5,121.5C 169.833,121.5 165.167,121.5 160.5,121.5C 160.5,118.167 160.5,114.833 160.5,111.5C 160.5,108.833 160.5,106.167 160.5,103.5C 162.5,103.5 164.5,103.5 166.5,103.5 Z"/></g>
<g><path style="opacity:1" fill="#f8afaf" d="M 123.5,106.5 C 126.044,106.104 128.211,106.771 130,108.5C 131.004,111.993 130.504,115.159 128.5,118C 125.472,119.14 123.305,118.306 122,115.5C 121.207,112.259 121.707,109.259 123.5,106.5 Z"/></g>
<g><path style="opacity:1" fill="#f4cbca" d="M 31.5,106.5 C 38.8388,107.014 40.8388,110.514 37.5,117C 35.6547,118.128 33.6547,118.628 31.5,118.5C 31.5,114.5 31.5,110.5 31.5,106.5 Z"/></g>
<g><path style="opacity:1" fill="#f5aeae" d="M 144.5,106.5 C 151.839,107.014 153.839,110.514 150.5,117C 148.655,118.128 146.655,118.628 144.5,118.5C 144.5,114.5 144.5,110.5 144.5,106.5 Z"/></g>
<g><path style="opacity:1" fill="#807979" d="M 89.5,134.5 C 92.8452,134.864 93.8452,136.531 92.5,139.5C 90.0433,137.775 87.3766,137.275 84.5,138C 79.2305,145.72 81.2305,149.387 90.5,149C 92.2324,146.774 93.2324,147.107 93.5,150C 93.3158,151.376 92.6491,152.209 91.5,152.5C 82.9224,155.38 77.9224,152.38 76.5,143.5C 77.8142,136.191 82.1476,133.191 89.5,134.5 Z"/></g>
<g><path style="opacity:1" fill="#7f7878" d="M 110.5,149.5 C 110.768,151.099 110.434,152.432 109.5,153.5C 105.167,153.5 100.833,153.5 96.5,153.5C 96.5,147.167 96.5,140.833 96.5,134.5C 98.1667,134.5 99.8333,134.5 101.5,134.5C 101.5,139.5 101.5,144.5 101.5,149.5C 104.5,149.5 107.5,149.5 110.5,149.5 Z"/></g>
<g><path style="opacity:1" fill="#7f7979" d="M 114.5,134.5 C 117.167,134.5 119.833,134.5 122.5,134.5C 122.5,135.5 122.5,136.5 122.5,137.5C 121.5,137.5 120.5,137.5 119.5,137.5C 119.5,141.5 119.5,145.5 119.5,149.5C 120.833,149.5 122.167,149.5 123.5,149.5C 123.5,150.833 123.5,152.167 123.5,153.5C 119.5,153.5 115.5,153.5 111.5,153.5C 111.5,152.167 111.5,150.833 111.5,149.5C 112.833,149.5 114.167,149.5 115.5,149.5C 115.5,145.5 115.5,141.5 115.5,137.5C 114.5,137.5 113.5,137.5 112.5,137.5C 111.596,136.791 111.263,135.791 111.5,134.5C 112.5,134.5 113.5,134.5 114.5,134.5 Z"/></g>
</svg>
